<?xml version="1.0" encoding="utf-8"?>
<!-- Generator: Adobe Illustrator 19.1.0, SVG Export Plug-In . SVG Version: 6.00 Build 0)  -->
<svg version="1.1" xmlns="http://www.w3.org/2000/svg" xmlns:xlink="http://www.w3.org/1999/xlink" x="0px" y="0px"
	 viewBox="0 0 1536 2048" style="enable-background:new 0 0 1536 2048;" xml:space="preserve">
<style type="text/css">
	.st0{fill:#FFFFFF;}
	.st1{stroke:#000000;stroke-miterlimit:10;}
	.st2{fill:#D1D1D1;stroke:#000000;stroke-miterlimit:10;}
	.st3{fill:#FF0000;}
    
    #m-on {
        display:none;
    }
    
    #h-on {
        display:none;
    }

    .clickit #m-on {
        display:block;
    }
</style>
<g id="h-on">
	<path class="n0" d="M399.5,259.4c-0.4-2.3,0.4-4.3,2.2-6.2c1.8-1.9,4.2-3,7.1-3.4c2.6-0.4,4.9,0,7.1,1.1l1.5-39l41.2-3.2
		c-1.2,29-1.9,44-2,45.2c-0.1,2-1,3.8-2.7,5.4c-1.8,1.6-3.9,2.6-6.5,3c-2.9,0.4-5.5-0.1-7.7-1.3s-3.5-3.1-3.9-5.3s0.4-4.3,2.2-6.2
		s4.1-3.1,7-3.4c2.7-0.4,5.2,0,7.5,1.3l1.5-27.8l-32.2,3.3l-0.4,7.8c-0.2,5.2-0.5,10.7-0.7,16.6s-0.4,9.3-0.5,10.5v0.4
		c-0.2,2-1.2,3.8-2.9,5.3s-3.9,2.5-6.4,2.9c-2.8,0.4-5.3-0.1-7.6-1.4S399.8,261.7,399.5,259.4L399.5,259.4z"/>
	<path class="n1" d="M627.4,422.5c-0.4-2.3,0.4-4.3,2.2-6.2c1.8-1.9,4.2-3,7.1-3.4c2.6-0.4,4.9,0,7.1,1.1l1.5-39l41.2-3.2
		c-1.2,29-1.9,44-2,45.2c-0.1,2-1,3.8-2.7,5.4c-1.8,1.6-3.9,2.6-6.5,3c-2.9,0.4-5.5-0.1-7.7-1.3c-2.3-1.3-3.5-3.1-3.9-5.3
		c-0.3-2.3,0.4-4.3,2.2-6.2c1.8-1.9,4.1-3.1,7-3.4c2.7-0.4,5.2,0,7.5,1.3l1.5-27.8l-32.2,3.3l-0.4,7.8c-0.2,5.2-0.5,10.7-0.7,16.6
		c-0.2,5.8-0.4,9.3-0.5,10.5v0.4c-0.2,2-1.2,3.8-2.9,5.3c-1.7,1.5-3.9,2.5-6.4,2.9c-2.8,0.4-5.3-0.1-7.6-1.4
		C629.1,426.6,627.8,424.8,627.4,422.5L627.4,422.5z"/>
	<path class="n2" d="M315,345.8c-0.4-2.3,0.4-4.3,2.2-6.2c1.8-1.9,4.2-3,7.1-3.4c2.6-0.4,4.9,0,7.1,1.1l1.5-39l41.2-3.2c-1.2,29-1.9,44-2,45.2
		c-0.1,2-1,3.8-2.7,5.4c-1.8,1.6-3.9,2.6-6.5,3c-2.9,0.4-5.5-0.1-7.7-1.3c-2.3-1.3-3.5-3.1-3.9-5.3c-0.3-2.3,0.4-4.3,2.2-6.2
		s4.1-3.1,7-3.4c2.7-0.4,5.2,0,7.5,1.3l1.5-27.8l-32.2,3.3L337,317c-0.2,5.2-0.5,10.7-0.7,16.6c-0.2,5.8-0.4,9.3-0.5,10.5v0.4
		c-0.2,2-1.2,3.8-2.9,5.3s-3.9,2.5-6.4,2.9c-2.8,0.4-5.3-0.1-7.6-1.4C316.7,349.9,315.4,348.1,315,345.8L315,345.8z"/>
    <path class="n3" d="M305.7,371.9c0.3,0,0.4-0.1,0.4-0.1c4-0.2,6.2,1.6,7.2,5.7c1,4,3.4,7.2,6.2,10.3c6.1,6.7,9.6,14.5,7.5,23.7
			c-1.3,5.9-4.8,10.3-10.7,13.4c2-6.3,4.8-12.1,3-18.5c-1.8-6.3-6-10.8-11-15.3c-0.6,4.7-1.2,9.1-1.8,13.4
			c-1.1,8.7-2.3,17.5-3.5,26.2c-0.1,0.6-0.2,1.2-0.5,1.6c-3.3,4.9-11.1,7.8-16.8,6.2c-6.4-1.8-9.7-7.4-8.1-13.9
			c1.4-5.9,6.8-9.2,13.3-7.8c2.7,0.6,5.3,1.7,8.2,2.7C301.4,403.7,303.5,387.8,305.7,371.9z"/>
	<path class="n4" d="M610.6,284.3c0.3,0,0.4-0.1,0.4-0.1c4-0.2,6.2,1.6,7.2,5.7c1,4,3.4,7.2,6.2,10.3c6.1,6.7,9.6,14.5,7.5,23.7
			c-1.3,5.9-4.8,10.3-10.7,13.4c2-6.3,4.8-12.1,3-18.5c-1.8-6.3-6-10.8-11-15.3c-0.6,4.7-1.2,9.1-1.8,13.4
			c-1.1,8.7-2.3,17.5-3.5,26.2c-0.1,0.6-0.2,1.2-0.5,1.6c-3.3,4.9-11.1,7.8-16.8,6.2c-6.4-1.8-9.7-7.4-8.1-13.9
			c1.4-5.9,6.8-9.2,13.3-7.8c2.7,0.6,5.3,1.7,8.2,2.7C606.3,316.1,608.4,300.1,610.6,284.3z"/>
    <path class="n5" d="M535.3,199.2c0.3,0,0.4-0.1,0.4-0.1c4-0.2,6.2,1.6,7.2,5.7c1,4,3.4,7.2,6.2,10.3c6.1,6.7,9.6,14.5,7.5,23.7
			c-1.3,5.9-4.8,10.3-10.7,13.4c2-6.3,4.8-12.1,3-18.5c-1.8-6.3-6-10.8-11-15.3c-0.6,4.7-1.2,9.1-1.8,13.4
			c-1.1,8.7-2.3,17.5-3.5,26.2c-0.1,0.6-0.2,1.2-0.5,1.6c-3.3,4.9-11.1,7.8-16.8,6.2c-6.4-1.8-9.7-7.4-8.1-13.9
			c1.4-5.9,6.8-9.2,13.3-7.8c2.7,0.6,5.3,1.7,8.2,2.7C531,231,533.2,215.1,535.3,199.2z"/>
</g>
<g id="h-off">
	<g>
		<path class="st1" d="M356.6,583.8H392c6.6,0,12-5.4,12-12V433.2c0-6.6-5.4-12-12-12h-35.4c-6.6,0-12,5.4-12,12v138.5
			C344.6,578.3,350,583.8,356.6,583.8z"/>
		<path class="st1" d="M560,583.8h35.4c6.6,0,12-5.4,12-12V433.2c0-6.6-5.4-12-12-12H560c-6.6,0-12,5.4-12,12v138.5
			C548,578.3,553.4,583.8,560,583.8z"/>
		<path class="st2" d="M334.6,556.8L334.6,556.8c5.5,0,10-4.5,10-10v-84.3c0-5.5-4.5-10-10-10h0c-5.5,0-10,4.5-10,10v84.3
			C324.7,552.3,329.1,556.8,334.6,556.8z"/>
		<path class="st2" d="M617.4,556.8L617.4,556.8c5.5,0,10-4.5,10-10v-84.3c0-5.5-4.5-10-10-10l0,0c-5.5,0-10,4.5-10,10v84.3
			C607.4,552.3,611.9,556.8,617.4,556.8z"/>
		<path class="st2" d="M568.3,421.2c-34.7-153.1-143.3-154-186,0h-18c41.5-180.6,183.7-184.9,222.5,0"/>
	</g>
</g>
<g id="h-noton">
	<path class="st3" d="M305.9,580.4l-1.1-1.6c-3.8-5.4-2.5-12.9,2.9-16.7l307.7-262.9c5.4-3.8,12.9-2.5,16.7,2.9l1.1,1.6
		c3.8,5.4,2.5,12.9-2.9,16.7L322.6,583.4C317.2,587.2,309.7,585.8,305.9,580.4z"/>
	<path class="st3" d="M645.6,578.8l-1.1,1.6c-3.8,5.4-11.3,6.7-16.7,2.9L320.1,320.4c-5.4-3.8-6.7-11.3-2.9-16.7l1.1-1.6
		c3.8-5.4,11.3-6.7,16.7-2.9l307.7,262.9C648.1,565.9,649.4,573.4,645.6,578.8z"/>
</g>
<g id="m-off">
	<g>
		<path d="M1027,547.2c0-4.1,0-7.8,0-11.8c-1.3-0.4-2.7-0.8-4.1-1.1c-15.5-3.8-28.9-11.2-40.3-22.1c-13.5-12.9-22.1-28.4-25.3-46.6
			c-0.9-4.9-1.3-9.9-1.3-14.8c-0.2-15.1-0.1-30.3,0-45.4c0-1.2-0.2-1.9-1.4-2.5c-6.3-3.2-9.9-10.8-8.4-17.2
			c1.8-7.8,8.6-12.7,15.1-12.9c8.6-0.2,15.1,4.4,17.2,11.8c2,7.3-1.3,14.7-8.2,18.3c-1,0.5-1.3,1.1-1.3,2.2
			c0,15.8-0.1,31.6,0.1,47.4c0.2,14.3,4.7,27.4,12.9,39.3c10.4,15.1,24.9,24.8,42.6,29.9c0.5,0.2,1.1,0.3,1.6,0.4
			c0.3,0.1,0.5,0,1,0.1c0-2,0-3.8,0-5.7c0-1.8,0.8-2.6,2.6-2.6c10.2,0,20.4,0,30.6,0c1.7,0,2.6,0.8,2.5,2.4c0,1.9,0,3.9,0,6.5
			c5.8-2.3,11.4-4.1,16.6-6.6c10.5-5.1,19.3-12.3,26.3-21.5c9.6-12.5,14.9-26.6,15.2-42.3c0.3-15.9,0-31.7,0.1-47.6
			c0-1.4-0.8-1.8-1.8-2.3c-5.7-3-9.1-9.6-8.3-16c0.8-6.2,5.8-11.9,11.9-13.4c8.3-2.1,16.8,1.9,19.8,9.4c3.2,8,0.2,16.2-7.7,20.3
			c-1.3,0.7-1.1,1.5-1.1,2.5c0,15.1,0.1,30.1,0,45.2c-0.3,26.8-11.1,49-32.1,66.4c-10.9,9-23.5,14.8-37.4,18
			c-0.4,0.1-0.8,0.2-1.2,0.3c-0.1,0-0.2,0.1-0.4,0.2c0,3.8,0,7.6,0,11.7c0.8,0,1.6,0,2.3,0c17.9,0,35.9,0,53.8,0
			c3.2,0,3.6,0.4,3.6,3.5c0,3.8,0,7.5,0,11.3c0,2.2-0.6,2.8-2.8,2.8c-17.9,0-35.7,0-53.6-0.1c-0.8,0-1.5,0.1-2.3,0.1
			c-31,0-62.1,0-93.1,0c-3,0-3.4-0.4-3.4-3.2c0-3.6,0-7.3,0-10.9c0-3,0.4-3.4,3.4-3.4c17.9,0,35.7,0,53.6,0
			C1025.1,547.2,1025.9,547.2,1027,547.2z"/>
		<path d="M1099.3,409.4c0,0.8,0,1.5,0,2.3c0,13.6,0,27.2,0,40.8c0,12.7-3.3,24.5-11.8,34.5c-6.4,7.5-14.5,12.7-24,15.6
			c-14,4.3-27.9,4-41.4-1.5c-14.7-6-24.5-16.4-29.2-31.3c-1.7-5.4-2.4-11-2.4-16.7c0-13.9,0-27.8,0-41.8c0-0.6,0.1-1.2,0.1-1.9
			C1026.8,409.4,1062.9,409.4,1099.3,409.4z"/>
		<path d="M1101.6,365.8c-37.9,0-75.5,0-113.4,0c0-4.2,0-8.2,0-12.3c0.1-13-0.4-26,0.4-38.9c1.4-22.9,15.7-40.3,38.4-46.9
			c13.7-3.9,27.4-3.6,40.7,1.6c17.5,6.7,28.5,19,32.5,36.9c1,4.4,1.5,8.9,1.5,13.4c0.2,14.8,0.1,29.6,0.1,44.4
			C1101.6,364.5,1101.6,365,1101.6,365.8z M1049.6,319.1c-1.5-1.6-3.1-3.3-4.5-4.8c-1.9,1.7-3.6,3.3-5.1,4.7
			c1.6,1.8,3.1,3.5,4.9,5.4C1046.6,322.4,1048.1,320.7,1049.6,319.1z M1032.6,311.9c1.7,1.8,3.2,3.4,4.7,5c1.9-1.8,3.5-3.5,4.7-4.6
			c-1.4-1.7-2.8-3.5-4.3-5.3C1035.8,308.9,1034.2,310.4,1032.6,311.9z M1052.1,316.9c1.9-1.7,3.6-3.3,5-4.6
			c-1.7-1.9-3.2-3.6-4.7-5.2c-1.9,1.7-3.5,3.3-5,4.7C1049,313.6,1050.5,315.3,1052.1,316.9z M1037.5,330.9c1.5-1.4,3.2-3,4.7-4.4
			c-1.7-1.6-3.3-3.3-4.9-4.8c-1.6,1.5-3.3,3-5.2,4.7C1034,327.9,1035.7,329.3,1037.5,330.9z M1052.6,321.6c-1.8,1.6-3.6,3.1-5.4,4.6
			c1.8,1.7,3.5,3.3,4.9,4.7c1.8-1.5,3.5-3.1,5.4-4.6C1055.7,324.5,1054,323,1052.6,321.6z M1030.1,338c1.6-1.3,3.4-2.8,5.2-4.4
			c-2-1.8-3.7-3.4-5.5-5c-1.5,1.6-3.1,3.2-4.9,5C1026.9,335.1,1028.6,336.6,1030.1,338z M1064.9,333.5c-2-1.7-3.8-3.2-5-4.3
			c-1.7,1.3-3.5,2.7-5.6,4.3c2,1.7,3.7,3.3,5.2,4.6C1061.2,336.7,1062.9,335.2,1064.9,333.5z M1044.7,338.3c1.8-1.7,3.5-3.3,4.8-4.4
			c-1.6-1.8-3.1-3.6-4.5-5.1c-1.8,1.7-3.5,3.2-5.3,4.8C1041.5,335.2,1043.1,336.8,1044.7,338.3z M1042.1,341
			c-1.5-1.7-3.1-3.4-4.7-5.3c-1.7,1.7-3.3,3.4-4.6,4.7c1.5,1.7,3.1,3.5,4.7,5.4C1039.3,343.8,1040.9,342.2,1042.1,341z
			 M1064.6,319.3c-1.8-1.7-3.5-3.3-4.9-4.7c-1.8,1.5-3.5,3-5.4,4.5c1.9,1.8,3.6,3.3,5,4.7C1061.1,322.3,1062.9,320.8,1064.6,319.3z
			 M1052.3,345.7c1.8-1.8,3.4-3.5,4.8-4.9c-1.6-1.7-3.1-3.4-4.7-5.1c-1.8,1.8-3.4,3.5-5,5.1C1048.8,342.2,1050.5,343.8,1052.3,345.7
			z M1035.3,319.2c-1.8-1.7-3.5-3.3-4.8-4.7c-1.8,1.6-3.5,3.1-5.3,4.7c1.8,1.6,3.5,3.1,5.1,4.5
			C1031.7,322.4,1033.5,320.8,1035.3,319.2z M1049.6,348.1c-1.7-2-3.1-3.7-4.5-5.4c-1.9,1.8-3.6,3.4-5.3,5c1.8,1.6,3.4,3.1,5.1,4.7
			C1046.7,350.8,1048.3,349.3,1049.6,348.1z M1071.9,326.2c-1.8-1.7-3.5-3.2-4.8-4.4c-1.7,1.4-3.5,2.9-5.4,4.5
			c1.9,1.7,3.5,3.3,5.1,4.7C1068.4,329.4,1070,327.9,1071.9,326.2z M1028,326.4c-1.9-1.8-3.5-3.3-4.7-4.4c-1.8,1.5-3.6,2.9-5.5,4.4
			c1.8,1.7,3.4,3.3,4.9,4.7C1024.6,329.5,1026.2,328,1028,326.4z M1049.8,304.7c-1.5-1.4-3.2-2.9-5-4.5c-1.8,1.7-3.4,3.2-4.9,4.5
			c1.7,1.8,3.3,3.4,5,5.2C1046.6,308.2,1048.1,306.6,1049.8,304.7z M1059.3,300.3c-1.7,1.7-3.3,3.1-4.8,4.6c1.8,1.8,3.5,3.4,4.8,4.7
			c1.9-1.4,3.6-2.8,5.4-4.1C1062.6,303.6,1061,302,1059.3,300.3z M1066.4,345.3c1.9-1.7,3.5-3.3,5.1-4.8c-1.6-1.7-3.1-3.3-4.4-4.6
			c-1.8,1.7-3.5,3.3-5,4.7C1063.5,342.1,1064.9,343.7,1066.4,345.3z M1018.2,340.3c1.7,1.7,3.3,3.3,4.9,5c1.7-1.7,3.3-3.2,4.8-4.8
			c-1.7-1.7-3.3-3.3-5.1-5.1C1021.3,337.1,1019.8,338.6,1018.2,340.3z M1025.3,305.3c1.8,1.5,3.5,2.9,5,4.2c1.5-1.4,3.3-2.9,5-4.5
			c-1.7-1.7-3.2-3.2-4.8-4.8C1028.8,302,1027.1,303.6,1025.3,305.3z M1066.5,316.7c1.7-1.5,3.4-2.9,5.1-4.4c-1.8-1.7-3.4-3.3-5-4.9
			c-1.6,1.5-3.2,3-4.9,4.6C1063.5,313.8,1065.1,315.4,1066.5,316.7z M1052.2,303.1c1.6-1.7,3.1-3.3,4.7-5c-1.5-1.4-3.1-2.8-4.9-4.4
			c-1.7,1.6-3.3,3.1-5,4.6C1048.8,299.9,1050.4,301.4,1052.2,303.1z M1030.6,342.8c-1.9,1.6-3.6,3.1-4.8,4.2
			c1.7,1.8,3.3,3.4,4.7,4.9c1.7-1.4,3.3-2.8,5-4.3C1033.7,345.8,1032.1,344.3,1030.6,342.8z M1022.9,316.9c1.7-1.6,3.4-3.2,5.1-4.7
			c-1.6-1.7-3.1-3.3-4.3-4.7c-2,1.8-3.7,3.3-5.5,4.8C1019.8,313.9,1021.4,315.4,1022.9,316.9z M1059.2,352.2
			c1.8-1.7,3.5-3.3,5.2-4.9c-1.6-1.5-3.2-3.1-4.9-4.7c-1.7,1.6-3.4,3.2-5.2,4.9C1056,349.2,1057.6,350.7,1059.2,352.2z
			 M1042.4,298.1c-4.3-5-4.3-5-9-0.5c-0.2,0.2-0.4,0.5-0.8,0.9c1.7,1.6,3.3,3.1,5.1,4.7C1039.4,301.3,1040.9,299.7,1042.4,298.1z
			 M1073.8,324.3c1.7-1.8,3.2-3.3,4.7-5c-1.7-1.7-3.2-3.3-4.9-5c-1.6,1.7-3.2,3.2-4.8,4.9C1070.5,321,1072.1,322.5,1073.8,324.3z
			 M1073.7,338.3c1.6-1.7,3.2-3.3,4.8-5c-1.6-1.7-3.1-3.3-4.7-5c-1.8,1.8-3.3,3.5-4.9,5.1C1070.6,335.1,1072.1,336.7,1073.7,338.3z
			 M1016,324.2c1.6-1.7,3.2-3.3,5-5.1c-1.7-1.7-3.2-3.2-4.9-4.8c-1.5,1.5-2.9,2.8-4.1,4.3c-0.3,0.4-0.2,1.4,0.1,1.8
			C1013.3,321.7,1014.7,322.9,1016,324.2z M1015.9,328.3c-1.6,1.7-3.1,3.3-4.7,5c1.7,1.7,3.2,3.3,4.9,5c1.6-1.7,3.2-3.3,4.8-4.9
			C1019.2,331.7,1017.7,330.1,1015.9,328.3z M1032.7,354.4c1.7,1.5,3.3,3,5,4.6c1.8-1.6,3.3-3,4.8-4.4c-1.7-1.8-3.2-3.4-4.8-5.2
			C1036,351.2,1034.4,352.7,1032.7,354.4z M1052.1,349.4c-1.7,1.8-3.3,3.4-4.9,5.2c1.5,1.4,3.1,2.9,4.8,4.4c1.7-1.6,3.4-3.1,5-4.7
			C1055.4,352.7,1053.9,351.1,1052.1,349.4z M1011.5,347c1.9,1.6,3.6,3,5.1,4.2c1.4-1.2,2.9-2.5,4.6-4c-1.9-1.6-3.6-3.1-5.4-4.6
			C1014.6,343.8,1013.3,345.2,1011.5,347z M1078.3,347.1c-1.8-1.8-3.2-3.3-4.2-4.3c-1.9,1.5-3.7,2.9-5.6,4.5c1.8,1.6,3.3,3,4.6,4.2
			C1074.7,350,1076.4,348.6,1078.3,347.1z M1070.7,354.2c-1.5-1.8-2.8-3.3-4.2-5c-1.8,1.8-3.4,3.5-5,5.1c1.5,1.3,3,2.7,4.6,4.2
			C1067.8,356.9,1069.4,355.4,1070.7,354.2z M1018.9,354c1.5,1.4,3.2,2.9,4.9,4.5c1.6-1.5,3.1-2.9,4.4-4.1c-1.7-1.8-3.2-3.4-4.9-5.2
			C1021.7,350.9,1020.4,352.4,1018.9,354z M1071,298.7c-1.6-1.5-3.2-3-4.9-4.6c-1.7,1.5-3.1,2.9-4.1,3.8c1.5,1.9,3,3.7,4.6,5.7
			C1068.1,301.8,1069.5,300.3,1071,298.7z M1028.4,298.3c-1.6-1.4-3.1-2.8-4.8-4.3c-1.7,1.8-3.2,3.4-4.4,4.7
			c1.3,1.5,2.6,3.1,4.1,4.8C1025.1,301.7,1026.7,300.1,1028.4,298.3z M1009.3,321.4c-1.6,1.7-3,3.3-4.6,5c1.6,1.7,3,3.2,4.6,4.9
			c1.6-1.7,3.1-3.3,4.6-4.9C1012.3,324.6,1010.9,323,1009.3,321.4z M1080.5,331.2c1.6-1.7,3-3.3,4.5-4.9c-1.6-1.7-3-3.3-4.5-4.9
			c-1.6,1.7-3,3.3-4.6,5C1077.4,328,1078.9,329.6,1080.5,331.2z M1044.9,296.3c1.7-1.5,3.3-3,5.1-4.5c-1.8-1.5-3.4-3-5.1-4.4
			c-1.8,1.6-3.4,3-5.1,4.4C1041.5,293.3,1043.2,294.8,1044.9,296.3z M1011.4,305.8c1.9,1.7,3.4,3,4.5,4c1.8-1.4,3.5-2.8,5.3-4.3
			c-1.7-1.6-3.2-3.1-4.4-4.3C1015.1,302.7,1013.4,304.1,1011.4,305.8z M1068.6,305.2c1.9,1.7,3.6,3.2,5.3,4.8
			c1.2-1.3,2.6-2.7,4.1-4.2c-1.8-1.7-3.4-3.2-4.9-4.6C1071.7,302.5,1070.2,303.9,1068.6,305.2z M1080.4,335.2
			c-1.6,1.7-3.2,3.3-4.8,5c1.5,1.5,2.9,3,4.5,4.6c1.6-1.7,3.1-3.3,4.7-5C1083.3,338.3,1081.9,336.8,1080.4,335.2z M1005,339.9
			c1.6,1.7,3.1,3.3,4.7,5c1.5-1.6,3-3.1,4.4-4.7c-1.6-1.7-3.2-3.3-4.8-5C1007.8,336.8,1006.5,338.3,1005,339.9z M1059.2,296.5
			c1.6-1.5,3.2-2.9,4.8-4.4c-1.8-1.6-3.4-3-5.1-4.5c-1.6,1.4-3.1,2.8-4.7,4.2C1055.8,293.4,1057.4,294.9,1059.2,296.5z
			 M1084.7,312.8c-1.6-1.7-3.1-3.3-4.7-5c-1.6,1.6-3,3.1-4.4,4.7c1.6,1.7,3.2,3.3,4.8,5C1081.9,315.8,1083.3,314.3,1084.7,312.8z
			 M1014.2,312.4c-1.5-1.6-2.9-3.1-4.5-4.7c-1.6,1.7-3.1,3.3-4.7,5c1.5,1.6,2.9,3.1,4.3,4.7C1011,315.7,1012.5,314.1,1014.2,312.4z
			 M1025.8,292.2c1.6,1.5,3.2,2.9,4.8,4.3c1.8-1.6,3.4-3.1,5.1-4.7c-1.6-1.4-3.1-2.8-4.7-4.2
			C1029.2,289.1,1027.6,290.6,1025.8,292.2z M1014.4,353.9c-1.6-1.8-3-3.5-4.5-5.3c-1.5,1.5-2.7,2.8-4.2,4.4
			c1.9,1.5,3.5,2.9,5.2,4.3C1012,356.2,1013.3,355,1014.4,353.9z M1075.4,353.4c1.2,1.4,2.5,2.8,3.9,4.3c1.6-1.6,3.1-3.2,4.7-4.8
			c-1.4-1.5-2.7-2.7-4.1-4.2C1078.2,350.4,1076.7,352,1075.4,353.4z M1012.6,292.9c1.4,1.4,2.8,2.8,4.1,4.1c1.7-1.6,3.3-3.1,5-4.7
			c-1.4-1.3-2.7-2.5-4.2-3.9C1015.8,290,1014.2,291.4,1012.6,292.9z M1003,328.2c-1.5,1.7-2.8,3.2-4.1,4.8c1.4,1.6,2.8,3.2,4.3,4.9
			c1.5-1.6,2.9-3.1,4.3-4.6C1005.9,331.5,1004.6,329.9,1003,328.2z M1052,290c1.6-1.4,3.1-2.7,4.8-4.2c-1.8-1.5-3.4-2.8-5-4.2
			c-1.7,1.4-3.2,2.7-4.8,4.1C1048.7,287.2,1050.3,288.6,1052,290z M1042.9,285.6c-1.7-1.4-3.3-2.7-4.9-4c-1.7,1.5-3.3,2.8-4.9,4.2
			c1.7,1.5,3.2,2.8,4.8,4.1C1039.6,288.5,1041.1,287.1,1042.9,285.6z M1005.8,299.8c1.5,1.4,2.8,2.6,4.1,3.8c1.7-1.5,3.3-3,5-4.5
			c-1.5-1.4-2.9-2.7-4.4-4.1C1008.9,296.6,1007.4,298.1,1005.8,299.8z M1086.6,314.8c-1.5,1.7-2.9,3.2-4.3,4.7
			c1.5,1.7,2.9,3.2,4.5,4.9c1.4-1.6,2.7-3.1,4.1-4.7C1089.4,318,1088.1,316.5,1086.6,314.8z M1003.2,314.8c-1.3,1.5-2.5,2.7-3.6,4.1
			c-0.3,0.3-0.3,1.1-0.1,1.3c1.1,1.4,2.4,2.7,3.6,4.1c1.6-1.7,3-3.3,4.4-4.9C1006.1,317.9,1004.7,316.4,1003.2,314.8z M1077.1,292.8
			c-1.6-1.4-3.2-2.9-4.9-4.4c-1.5,1.4-2.9,2.6-4.2,3.9c1.7,1.7,3.3,3.2,4.7,4.6C1074.1,295.5,1075.5,294.2,1077.1,292.8z
			 M1086.7,328.3c-1.5,1.7-3,3.3-4.4,4.9c1.5,1.6,2.9,3.1,4.3,4.6c1.3-1.5,2.5-2.8,3.6-4.1c0.2-0.3,0.3-1.1,0.1-1.4
			C1089.2,331,1088,329.7,1086.7,328.3z M1075,299c1.7,1.7,3.2,3.2,4.9,4.9c1.4-1.4,2.7-2.7,4.4-4.5c-1.8-1.4-3.6-2.8-5.3-4.1
			C1077.8,296.5,1076.5,297.7,1075,299z M1003.3,310.9c1.6-1.7,3.1-3.3,4.6-4.9c-1.4-1.5-2.7-2.8-4.1-4.3c-1.6,1.7-3,3.3-4.5,4.9
			C1000.8,308.1,1002,309.4,1003.3,310.9z M1090.3,306.6c-1.5-1.7-2.9-3.2-4.5-4.9c-1.4,1.5-2.7,2.9-4.1,4.3c1.6,1.7,3,3.2,4.6,4.9
			C1087.8,309.4,1089,308.1,1090.3,306.6z M1019.6,286.5c1.5,1.4,2.9,2.6,4.4,3.9c1.7-1.5,3.3-2.9,5.1-4.4c-1.5-1.3-3-2.5-4.5-3.8
			C1022.9,283.6,1021.3,285,1019.6,286.5z M1008,346.6c-1.6-1.7-3.1-3.3-4.7-5c-1.4,1.6-2.6,3-3.9,4.4c1.5,1.7,3,3.2,4.5,4.8
			C1005.3,349.4,1006.6,348.1,1008,346.6z M1085.9,350.9c1.6-1.8,3-3.3,4.4-4.9c-1.4-1.5-2.6-2.8-3.9-4.3c-1.6,1.7-3.1,3.3-4.6,4.9
			C1083.1,348.1,1084.4,349.4,1085.9,350.9z M1070.2,286.6c-1.8-1.6-3.4-2.9-5-4.4c-1.5,1.3-2.9,2.5-4.5,3.8c1.8,1.5,3.4,3,5.1,4.4
			C1067.3,289.1,1068.6,287.9,1070.2,286.6z M1049.7,280.1c-1.4-1.1-2.7-2.2-4-3.1c-0.4-0.3-1.2-0.3-1.6,0c-1.4,0.9-2.7,2-4.1,3.1
			c1.8,1.4,3.3,2.6,4.9,3.9C1046.6,282.6,1048.1,281.4,1049.7,280.1z M1092.5,321.7c-1.4,1.6-2.7,3.1-4,4.6c1.2,1.5,2.4,2.8,3.5,4.1
			c0.1,0.1,0.3,0.2,0.5,0.4c4.4-4,4.4-4.1,0.7-8.4C1093,322.2,1092.8,322,1092.5,321.7z M1031.6,276.6c-1.7,1.3-3.3,2.6-4.9,4
			c1.5,1.3,2.9,2.5,4.4,3.7c1.7-1.4,3.4-2.8,5.2-4.2C1034.6,278.8,1033.1,277.7,1031.6,276.6z M1053.6,280.2c1.8,1.4,3.4,2.7,5,4
			c1.5-1.2,2.9-2.4,4.4-3.7c-1.8-1.4-3.4-2.7-5.1-4C1056.5,277.8,1055.1,278.9,1053.6,280.2z M997.2,321.6c-1.1,1.4-2.1,2.5-3,3.7
			c-0.3,0.4-0.5,1.3-0.2,1.7c0.9,1.4,2.1,2.6,3.2,4c1.4-1.7,2.7-3.1,4-4.7C999.9,324.8,998.6,323.3,997.2,321.6z M1092.1,308.6
			c-1.1,1.2-2.1,2.3-3.1,3.5c-0.3,0.3-0.5,1.1-0.3,1.3c1.2,1.5,2.5,2.9,3.8,4.4c1.3-1.6,2.4-3,3.6-4.4
			C1094.7,311.8,1093.5,310.3,1092.1,308.6z M997.7,308.6c-1.4,1.7-2.7,3.3-4,4.9c1.3,1.5,2.4,2.9,3.6,4.4c1.5-1.7,2.8-3.3,4.2-4.9
			C1000.2,311.4,999,310,997.7,308.6z M1001.5,339.7c-1.4-1.7-2.8-3.2-4.2-4.9c-1.3,1.5-2.4,2.9-3.6,4.4c1.3,1.6,2.6,3.2,4,4.9
			C999,342.6,1000.2,341.2,1001.5,339.7z M1092.1,344.1c1.4-1.7,2.7-3.3,4-4.9c-1.3-1.5-2.4-2.9-3.6-4.4c-1.5,1.7-2.8,3.3-4.2,4.9
			C1089.5,341.2,1090.7,342.5,1092.1,344.1z M1010.9,291.5c1.7-1.7,3.2-3.2,4.8-4.7c-1.2-1.1-2.4-2.2-3.8-3.4
			c-1.6,1.5-3.2,2.9-4.5,4.1C1008.6,288.9,1009.7,290.1,1010.9,291.5z M1078.8,291.4c1.4-1.3,2.7-2.5,4-3.7
			c-1.7-1.5-3.2-2.9-4.9-4.4c-1.4,1.2-2.6,2.3-3.7,3.4C1075.7,288.3,1077.2,289.8,1078.8,291.4z M1004.2,298.1
			c1.6-1.7,3.1-3.2,4.5-4.6c-1.3-1.4-2.4-2.6-3.6-3.9c-1.6,1.6-3,3.1-4.5,4.7C1001.9,295.7,1003,296.8,1004.2,298.1z M1089.2,294.3
			c-1.6-1.6-3-3.1-4.3-4.4c-1.4,1.2-2.7,2.3-4.1,3.5c1.7,1.6,3.2,3.1,4.9,4.6C1086.8,296.7,1087.9,295.6,1089.2,294.3z
			 M1091.8,347.7c-1.6,1.7-2.9,3.3-4.4,4.9c1.3,1.3,2.4,2.5,3.6,3.8c1.5-1.7,2.8-3.2,4.1-4.7C1094,350.3,1093,349.1,1091.8,347.7z
			 M1017.8,285c1.8-1.5,3.3-2.8,5-4.2c-1.4-1.1-2.7-2.1-4.1-3.3c-1.6,1.4-3.2,2.7-4.9,4.1C1015.3,282.8,1016.5,283.8,1017.8,285z
			 M994.6,351.7c1.4,1.6,2.7,3.1,4.2,4.8c1.3-1.4,2.4-2.6,3.5-3.9c-1.5-1.7-2.9-3.2-4.3-4.9C996.8,349,995.8,350.3,994.6,351.7z
			 M1066.9,280.8c1.8,1.5,3.4,2.8,5.1,4.2c1.3-1.2,2.5-2.2,3.9-3.4c-1.7-1.4-3.2-2.7-4.9-4.1
			C1069.6,278.6,1068.3,279.7,1066.9,280.8z M1051.6,278.6c1.5-1.1,2.9-2.2,4.5-3.4c-1.5-1.1-2.8-2.1-4.2-3
			c-0.3-0.2-0.9-0.1-1.3,0.1c-1.3,0.8-2.4,1.7-3.8,2.7C1048.5,276.2,1050.1,277.4,1051.6,278.6z M1038.1,278.5
			c1.6-1.2,3.1-2.4,4.8-3.6c-1.4-1-2.7-2-3.9-2.8c-0.3-0.2-0.8-0.2-1.1,0c-1.4,1-2.8,2-4.3,3.1
			C1035.2,276.4,1036.6,277.4,1038.1,278.5z M1017.1,355.8c-1.6,1.4-3.1,2.6-4.5,3.8c2,2.2,7.3,2.5,8.9,0.7
			C1020,358.7,1018.5,357.2,1017.1,355.8z M1076.8,359.9c-1.3-1.5-2.6-2.9-4.1-4.7c-0.8,1-1.5,1.9-2.3,2.6c-0.8,0.8-1.8,1.4-2.7,2.1
			C1070.1,362,1075.2,361.6,1076.8,359.9z M1008.8,359.3c-1.5-1.6-3-3.1-4.6-4.7c-1.3,1.3-2.4,2.5-3.5,3.7
			C1003.7,362.2,1005.9,362.5,1008.8,359.3z M1080.9,359.3c3.2,3.2,5.2,2.9,8.2-1.1c-1.1-1.2-2.3-2.4-3.5-3.6
			C1083.9,356.2,1082.4,357.7,1080.9,359.3z M998.1,304.8c0.8-0.8,1.5-1.6,2.2-2.3c0.7-0.7,1.3-1.5,2.1-2.4
			c-1.2-1.3-2.2-2.5-3.3-3.6C995.5,299.1,995.1,302.3,998.1,304.8z M1091.6,304.8c3-2.4,2.7-5.5-0.8-8.4c-1.1,1.2-2.2,2.3-3.4,3.6
			C1088.9,301.7,1090.3,303.2,1091.6,304.8z M1024.9,279.1c0.9-0.7,1.7-1.3,2.5-1.9c0.8-0.6,1.6-1.2,2.4-1.8
			c-3.2-2.9-3.9-3.9-8.7,0.7C1022.3,277.1,1023.5,278.1,1024.9,279.1z M1060.1,275.4c1.7,1.3,3.2,2.5,4.8,3.7
			c1.3-1.1,2.6-2.1,3.8-3.1C1064.9,272.2,1063.5,272.1,1060.1,275.4z M1030.6,356.1c-1.6,1.5-3.1,2.9-4.6,4.3c0,0.2,0.1,0.4,0.1,0.6
			c3.1,0.6,6.3,0.2,9.4,0.2c0.1-0.2,0.1-0.3,0.2-0.5C1034,359.2,1032.3,357.7,1030.6,356.1z M1054.1,360.7c0.1,0.2,0.1,0.3,0.2,0.5
			c3.1,0,6.3,0.4,10-0.4c-2.1-1.9-3.6-3.3-5.1-4.7C1057.4,357.7,1055.8,359.2,1054.1,360.7z M1039.6,361.1c3.7,0,6.9,0,10.6,0
			c-2-1.8-3.6-3.2-5.3-4.7C1043.2,357.9,1041.6,359.3,1039.6,361.1z M997.4,357.9c-1.4-1.6-2.7-3-4.1-4.6c-1,3.2-0.6,6.3,1.2,7.9
			C995.5,360.1,996.4,359.1,997.4,357.9z M1096.6,353.6c-5.1,5.1-4.9,3.9-1.2,7.5C1098.1,358.9,1096.4,356.1,1096.6,353.6z
			 M1049.4,270.1c-3.2,0-6,0-9.1,0C1044.5,273.9,1045.2,273.9,1049.4,270.1z M1096.7,349.6c0-2.7,0-5,0-7.7
			c-1.2,1.4-2.2,2.6-3.3,3.9C1094.5,347,1095.5,348.1,1096.7,349.6z M993,349.6c1.3-1.6,2.3-2.7,3.3-3.9c-1.1-1.3-2.1-2.4-3.3-3.8
			C993,344.6,993,346.9,993,349.6z M1057.9,273.8c0.9-0.6,1.7-1.2,3-2.1c-2.7-0.5-4.9-0.9-7.1-1.3c0,0.2-0.1,0.3-0.1,0.5
			C1055.1,271.9,1056.5,272.8,1057.9,273.8z M1031.9,273.8c1.5-1.1,2.9-2.1,4.2-3c-0.1-0.1-0.1-0.3-0.2-0.4c-2.2,0.4-4.3,0.9-7,1.4
			C1030.2,272.7,1030.9,273.2,1031.9,273.8z M993,316.7c0,2.2,0,4.1,0,6.1C996.4,319,996.2,320.3,993,316.7z M1096.8,329.9
			c-3.2,3.1-3.1,3.6,0,5.8C1096.8,333.8,1096.8,331.9,1096.8,329.9z M993,329.7c0,2.2,0,4.2,0,6.3
			C995.8,332.9,995.8,332.9,993,329.7z M1096.8,316.7c-3.2,3.2-3.1,3.7,0,5.9C1096.8,320.8,1096.8,318.9,1096.8,316.7z
			 M1095.7,309.5c0.1-0.1,0.2-0.1,0.3-0.2c-0.3-1.3-0.6-2.6-1-4.3c-0.7,0.9-1,1.5-1.4,2C1094.3,307.9,1095,308.7,1095.7,309.5z
			 M994.7,305.1c-0.4,1.7-0.6,3-0.9,4.2c0.1,0,0.2,0.1,0.3,0.1c0.7-0.8,1.4-1.7,2.2-2.6C995.8,306.3,995.4,305.9,994.7,305.1z
			 M1005.4,285.9c0.1,0.1,0.1,0.1,0.2,0.2c1.4-1.4,2.8-2.9,4.2-4.3c0,0-0.1-0.1-0.1-0.1C1008.2,283.1,1006.8,284.5,1005.4,285.9z"/>
		<path d="M1044.9,405.4c-19.3,0-38.6,0-58,0c-3,0-3.3-0.3-3.3-3.2c0-9.8,0-19.6,0-29.4c0-2.6,0.3-2.9,3-2.9c38.6,0,77.3,0,115.9,0
			c3,0,3.5,0.3,3.5,3.2c0,10,0,20,0,30.1c0,2.1-1.3,2.3-3,2.3c-17.2,0-34.3,0-51.5,0C1049.4,405.4,1047.2,405.4,1044.9,405.4z"/>
		<path d="M1044.9,583.7c-12.3,0-24.7,0-37,0c-15.9,0-31.9,0-47.8,0c-2.8,0-3.3-0.4-3.3-3.1c0-3.6,0-7.1,0-10.7c0-2.5,0.5-3,3.1-3
			c22.9,0,45.7,0.1,68.6,0.1c18.7,0,37.4-0.1,56.1-0.1c15,0,30.1,0,45.1,0c2.8,0,3.3,0.4,3.3,3.1c0,3.5,0,7,0,10.5
			c0,2.7-0.5,3.2-3.2,3.2c-27.9,0-55.8,0-83.7,0C1045.6,583.7,1045.3,583.7,1044.9,583.7C1044.9,583.7,1044.9,583.7,1044.9,583.7z"
			/>
		<path class="st0" d="M1049.6,319.1c-1.5,1.7-3,3.4-4.8,5.3c-1.7-1.9-3.3-3.6-4.9-5.4c1.5-1.4,3.2-3,5.1-4.7
			C1046.5,315.8,1048.1,317.5,1049.6,319.1z"/>
		<path class="st0" d="M1032.6,311.9c1.6-1.5,3.2-3.1,5.1-4.9c1.4,1.8,2.9,3.5,4.3,5.3c-1.1,1.1-2.8,2.7-4.7,4.6
			C1035.8,315.4,1034.2,313.7,1032.6,311.9z"/>
		<path class="st0" d="M1052.1,316.9c-1.6-1.7-3.1-3.4-4.7-5.1c1.5-1.4,3.2-3,5-4.7c1.5,1.6,3,3.4,4.7,5.2
			C1055.7,313.6,1054,315.2,1052.1,316.9z"/>
		<path class="st0" d="M1037.5,330.9c-1.8-1.5-3.5-3-5.4-4.6c1.9-1.7,3.6-3.2,5.2-4.7c1.6,1.6,3.3,3.2,4.9,4.8
			C1040.7,327.9,1039,329.5,1037.5,330.9z"/>
		<path class="st0" d="M1052.6,321.6c1.4,1.4,3.1,2.9,4.9,4.7c-1.8,1.6-3.6,3.1-5.4,4.6c-1.4-1.4-3.1-3-4.9-4.7
			C1049,324.7,1050.8,323.2,1052.6,321.6z"/>
		<path class="st0" d="M1030.1,338c-1.6-1.4-3.3-2.8-5.1-4.5c1.7-1.8,3.3-3.4,4.9-5c1.8,1.7,3.5,3.2,5.5,5
			C1033.5,335.2,1031.7,336.6,1030.1,338z"/>
		<path class="st0" d="M1064.9,333.5c-2,1.7-3.7,3.1-5.4,4.6c-1.5-1.3-3.2-2.8-5.2-4.6c2.1-1.6,3.9-3,5.6-4.3
			C1061.1,330.3,1062.9,331.8,1064.9,333.5z"/>
		<path class="st0" d="M1044.7,338.3c-1.6-1.5-3.3-3.1-5-4.8c1.8-1.6,3.5-3.1,5.3-4.8c1.4,1.6,2.9,3.3,4.5,5.1
			C1048.3,335.1,1046.5,336.6,1044.7,338.3z"/>
		<path class="st0" d="M1042.1,341c-1.2,1.2-2.8,2.8-4.6,4.7c-1.6-1.9-3.2-3.6-4.7-5.4c1.3-1.4,2.9-3,4.6-4.7
			C1039,337.5,1040.6,339.3,1042.1,341z"/>
		<path class="st0" d="M1064.6,319.3c-1.8,1.5-3.5,3.1-5.2,4.5c-1.4-1.3-3.1-2.9-5-4.7c1.8-1.6,3.6-3,5.4-4.5
			C1061.2,315.9,1062.8,317.5,1064.6,319.3z"/>
		<path class="st0" d="M1052.3,345.7c-1.9-1.9-3.5-3.5-4.8-4.8c1.6-1.7,3.2-3.3,5-5.1c1.5,1.7,3.1,3.4,4.7,5.1
			C1055.7,342.2,1054.1,343.9,1052.3,345.7z"/>
		<path class="st0" d="M1035.3,319.2c-1.8,1.6-3.5,3.2-5.1,4.6c-1.6-1.4-3.3-2.9-5.1-4.5c1.8-1.6,3.5-3.1,5.3-4.7
			C1031.8,315.8,1033.5,317.5,1035.3,319.2z"/>
		<path class="st0" d="M1049.6,348.1c-1.3,1.2-3,2.7-4.7,4.4c-1.8-1.6-3.4-3.1-5.1-4.7c1.7-1.6,3.4-3.2,5.3-5
			C1046.5,344.4,1048,346.1,1049.6,348.1z"/>
		<path class="st0" d="M1071.9,326.2c-1.9,1.7-3.5,3.2-5.2,4.7c-1.5-1.4-3.2-2.9-5.1-4.7c1.9-1.6,3.7-3.1,5.4-4.5
			C1068.4,323,1070,324.6,1071.9,326.2z"/>
		<path class="st0" d="M1028,326.4c-1.8,1.6-3.5,3.1-5.2,4.7c-1.5-1.4-3.1-3-4.9-4.7c1.9-1.5,3.7-3,5.5-4.4
			C1024.5,323.1,1026.2,324.6,1028,326.4z"/>
		<path class="st0" d="M1049.8,304.7c-1.7,1.9-3.2,3.5-4.9,5.3c-1.7-1.8-3.3-3.4-5-5.2c1.5-1.3,3.1-2.9,4.9-4.5
			C1046.6,301.8,1048.3,303.3,1049.8,304.7z"/>
		<path class="st0" d="M1059.3,300.3c1.7,1.7,3.3,3.3,5.3,5.2c-1.7,1.3-3.5,2.7-5.4,4.1c-1.3-1.3-3-2.9-4.8-4.7
			C1056,303.4,1057.6,301.9,1059.3,300.3z"/>
		<path class="st0" d="M1066.4,345.3c-1.4-1.6-2.9-3.2-4.3-4.8c1.5-1.4,3.2-3,5-4.7c1.3,1.3,2.8,2.9,4.4,4.6
			C1069.9,342,1068.2,343.5,1066.4,345.3z"/>
		<path class="st0" d="M1018.2,340.3c1.6-1.6,3.1-3.2,4.7-4.8c1.8,1.8,3.4,3.4,5.1,5.1c-1.6,1.5-3.1,3.1-4.8,4.8
			C1021.5,343.6,1019.9,342,1018.2,340.3z"/>
		<path class="st0" d="M1025.3,305.3c1.8-1.8,3.5-3.3,5.2-5c1.6,1.6,3.1,3.1,4.8,4.8c-1.8,1.6-3.5,3.1-5,4.5
			C1028.7,308.2,1027.1,306.8,1025.3,305.3z"/>
		<path class="st0" d="M1066.5,316.7c-1.4-1.3-3-2.9-4.8-4.7c1.7-1.6,3.3-3.1,4.9-4.6c1.6,1.6,3.2,3.2,5,4.9
			C1069.9,313.8,1068.2,315.3,1066.5,316.7z"/>
		<path class="st0" d="M1052.2,303.1c-1.7-1.6-3.4-3.1-5.2-4.8c1.7-1.6,3.3-3,5-4.6c1.8,1.6,3.4,3,4.9,4.4
			C1055.3,299.7,1053.8,301.3,1052.2,303.1z"/>
		<path class="st0" d="M1030.6,342.8c1.5,1.5,3.1,3,4.9,4.8c-1.7,1.5-3.4,2.9-5,4.3c-1.4-1.5-3-3.1-4.7-4.9
			C1027,345.9,1028.7,344.4,1030.6,342.8z"/>
		<path class="st0" d="M1022.9,316.9c-1.5-1.5-3.1-3-4.8-4.6c1.7-1.5,3.5-3,5.5-4.8c1.3,1.4,2.8,3,4.3,4.7
			C1026.3,313.7,1024.6,315.3,1022.9,316.9z"/>
		<path class="st0" d="M1059.2,352.2c-1.6-1.5-3.2-3-4.9-4.6c1.8-1.7,3.5-3.3,5.2-4.9c1.7,1.6,3.3,3.1,4.9,4.7
			C1062.7,349,1061.1,350.5,1059.2,352.2z"/>
		<path class="st0" d="M1042.4,298.1c-1.5,1.6-3,3.3-4.7,5.1c-1.8-1.7-3.4-3.2-5.1-4.7c0.3-0.4,0.5-0.6,0.8-0.9
			C1038.2,293.1,1038.2,293.1,1042.4,298.1z"/>
		<path class="st0" d="M1073.8,324.3c-1.7-1.8-3.3-3.4-5-5.1c1.6-1.7,3.2-3.2,4.8-4.9c1.7,1.7,3.2,3.3,4.9,5
			C1077,321,1075.5,322.5,1073.8,324.3z"/>
		<path class="st0" d="M1073.7,338.3c-1.6-1.6-3.1-3.2-4.8-4.9c1.6-1.7,3.2-3.3,4.9-5.1c1.6,1.7,3.1,3.3,4.7,5
			C1076.9,335,1075.3,336.6,1073.7,338.3z"/>
		<path class="st0" d="M1016,324.2c-1.4-1.3-2.7-2.5-3.8-3.8c-0.3-0.4-0.4-1.4-0.1-1.8c1.2-1.4,2.6-2.7,4.1-4.3
			c1.7,1.6,3.2,3.1,4.9,4.8C1019.3,320.9,1017.7,322.5,1016,324.2z"/>
		<path class="st0" d="M1015.9,328.3c1.8,1.9,3.3,3.4,4.9,5.1c-1.6,1.6-3.1,3.2-4.8,4.9c-1.6-1.7-3.2-3.3-4.9-5
			C1012.8,331.6,1014.3,330,1015.9,328.3z"/>
		<path class="st0" d="M1032.7,354.4c1.7-1.7,3.2-3.3,5-5c1.6,1.8,3.2,3.4,4.8,5.2c-1.4,1.3-3,2.8-4.8,4.4
			C1036.1,357.5,1034.4,356,1032.7,354.4z"/>
		<path class="st0" d="M1052.1,349.4c1.7,1.7,3.3,3.2,4.9,4.9c-1.7,1.6-3.3,3.1-5,4.7c-1.7-1.5-3.3-3-4.8-4.4
			C1048.9,352.9,1050.5,351.2,1052.1,349.4z"/>
		<path class="st0" d="M1011.5,347c1.8-1.8,3.1-3.2,4.3-4.4c1.8,1.5,3.5,3,5.4,4.6c-1.7,1.4-3.3,2.8-4.6,4
			C1015.1,350,1013.4,348.6,1011.5,347z"/>
		<path class="st0" d="M1078.3,347.1c-1.9,1.6-3.6,2.9-5.3,4.3c-1.3-1.2-2.8-2.6-4.6-4.2c2-1.5,3.7-3,5.6-4.5
			C1075.1,343.8,1076.5,345.2,1078.3,347.1z"/>
		<path class="st0" d="M1070.7,354.2c-1.3,1.2-2.9,2.7-4.7,4.3c-1.6-1.5-3.1-2.8-4.6-4.2c1.7-1.7,3.2-3.3,5-5.1
			C1067.9,350.9,1069.2,352.4,1070.7,354.2z"/>
		<path class="st0" d="M1018.9,354c1.5-1.7,2.9-3.2,4.4-4.8c1.7,1.8,3.2,3.5,4.9,5.2c-1.3,1.2-2.8,2.6-4.4,4.1
			C1022,356.9,1020.4,355.4,1018.9,354z"/>
		<path class="st0" d="M1071,298.7c-1.5,1.6-2.9,3.1-4.5,4.9c-1.6-2-3-3.8-4.6-5.7c1-0.9,2.5-2.3,4.1-3.8
			C1067.7,295.7,1069.4,297.2,1071,298.7z"/>
		<path class="st0" d="M1028.4,298.3c-1.7,1.8-3.3,3.4-5.1,5.2c-1.5-1.8-2.8-3.3-4.1-4.8c1.2-1.3,2.8-2.9,4.4-4.7
			C1025.3,295.5,1026.8,296.9,1028.4,298.3z"/>
		<path class="st0" d="M1009.3,321.4c1.6,1.7,3,3.2,4.6,4.9c-1.6,1.7-3,3.2-4.6,4.9c-1.5-1.7-3-3.2-4.6-4.9
			C1006.3,324.7,1007.8,323.1,1009.3,321.4z"/>
		<path class="st0" d="M1080.5,331.2c-1.6-1.7-3-3.2-4.6-4.9c1.6-1.7,3-3.3,4.6-5c1.5,1.7,3,3.2,4.5,4.9
			C1083.5,328,1082,329.5,1080.5,331.2z"/>
		<path class="st0" d="M1044.9,296.3c-1.7-1.5-3.3-2.9-5.1-4.5c1.7-1.5,3.3-2.9,5.1-4.4c1.7,1.4,3.3,2.9,5.1,4.4
			C1048.2,293.3,1046.6,294.8,1044.9,296.3z"/>
		<path class="st0" d="M1011.4,305.8c2-1.7,3.7-3.1,5.4-4.5c1.2,1.2,2.7,2.6,4.4,4.3c-1.8,1.5-3.6,2.9-5.3,4.3
			C1014.8,308.8,1013.3,307.4,1011.4,305.8z"/>
		<path class="st0" d="M1068.6,305.2c1.5-1.4,3-2.7,4.5-4c1.5,1.4,3.1,2.9,4.9,4.6c-1.5,1.5-2.8,2.9-4.1,4.2
			C1072.2,308.5,1070.5,306.9,1068.6,305.2z"/>
		<path class="st0" d="M1080.4,335.2c1.5,1.6,2.9,3.1,4.4,4.6c-1.6,1.7-3.1,3.3-4.7,5c-1.6-1.6-3-3.1-4.5-4.6
			C1077.2,338.5,1078.7,336.9,1080.4,335.2z"/>
		<path class="st0" d="M1005,339.9c1.5-1.6,2.8-3,4.3-4.6c1.6,1.7,3.1,3.3,4.8,5c-1.5,1.5-2.9,3-4.4,4.7
			C1008.1,343.2,1006.6,341.6,1005,339.9z"/>
		<path class="st0" d="M1059.2,296.5c-1.8-1.7-3.4-3.1-5.1-4.7c1.6-1.5,3.1-2.8,4.7-4.2c1.7,1.5,3.3,2.9,5.1,4.5
			C1062.4,293.6,1060.8,295,1059.2,296.5z"/>
		<path class="st0" d="M1084.7,312.8c-1.4,1.5-2.8,3-4.3,4.7c-1.6-1.7-3.2-3.3-4.8-5c1.5-1.5,2.9-3,4.4-4.7
			C1081.6,309.5,1083.1,311.1,1084.7,312.8z"/>
		<path class="st0" d="M1014.2,312.4c-1.6,1.7-3.1,3.3-4.8,5c-1.5-1.6-2.9-3.1-4.3-4.7c1.6-1.7,3.1-3.3,4.7-5
			C1011.2,309.4,1012.6,310.8,1014.2,312.4z"/>
		<path class="st0" d="M1025.8,292.2c1.8-1.6,3.4-3,5.1-4.6c1.6,1.4,3.1,2.8,4.7,4.2c-1.7,1.6-3.3,3.1-5.1,4.7
			C1029,295.1,1027.4,293.7,1025.8,292.2z"/>
		<path class="st0" d="M1014.4,353.9c-1.1,1.1-2.4,2.3-3.5,3.4c-1.7-1.4-3.4-2.7-5.2-4.3c1.5-1.6,2.8-2.9,4.2-4.4
			C1011.4,350.4,1012.8,352.1,1014.4,353.9z"/>
		<path class="st0" d="M1075.4,353.4c1.3-1.4,2.9-3,4.5-4.7c1.4,1.4,2.7,2.7,4.1,4.2c-1.6,1.6-3.1,3.2-4.7,4.8
			C1077.9,356.2,1076.6,354.8,1075.4,353.4z"/>
		<path class="st0" d="M1012.6,292.9c1.6-1.5,3.2-2.9,4.9-4.5c1.5,1.4,2.8,2.6,4.2,3.9c-1.7,1.6-3.3,3.1-5,4.7
			C1015.4,295.6,1014,294.3,1012.6,292.9z"/>
		<path class="st0" d="M1003,328.2c1.5,1.7,2.9,3.3,4.4,5c-1.4,1.5-2.8,3-4.3,4.6c-1.5-1.7-2.9-3.2-4.3-4.9
			C1000.3,331.4,1001.5,329.9,1003,328.2z"/>
		<path class="st0" d="M1052,290c-1.7-1.4-3.3-2.8-5.1-4.3c1.6-1.4,3.1-2.7,4.8-4.1c1.7,1.4,3.2,2.7,5,4.2
			C1055.1,287.3,1053.6,288.6,1052,290z"/>
		<path class="st0" d="M1042.9,285.6c-1.7,1.5-3.3,2.9-5,4.4c-1.6-1.3-3.1-2.6-4.8-4.1c1.7-1.4,3.2-2.7,4.9-4.2
			C1039.5,282.9,1041.1,284.2,1042.9,285.6z"/>
		<path class="st0" d="M1005.8,299.8c1.7-1.7,3.2-3.3,4.6-4.8c1.5,1.4,2.9,2.7,4.4,4.1c-1.7,1.5-3.3,3-5,4.5
			C1008.6,302.5,1007.2,301.2,1005.8,299.8z"/>
		<path class="st0" d="M1086.6,314.8c1.5,1.7,2.9,3.3,4.3,4.9c-1.4,1.6-2.7,3.1-4.1,4.7c-1.5-1.7-3-3.2-4.5-4.9
			C1083.7,317.9,1085,316.4,1086.6,314.8z"/>
		<path class="st0" d="M1003.2,314.8c1.5,1.7,2.9,3.1,4.3,4.7c-1.5,1.6-2.9,3.2-4.4,4.9c-1.3-1.4-2.5-2.7-3.6-4.1
			c-0.2-0.3-0.1-1,0.1-1.3C1000.7,317.5,1001.9,316.3,1003.2,314.8z"/>
		<path class="st0" d="M1077.1,292.8c-1.6,1.5-2.9,2.7-4.3,4.1c-1.4-1.4-3-2.9-4.7-4.6c1.3-1.2,2.6-2.5,4.2-3.9
			C1073.9,289.9,1075.5,291.3,1077.1,292.8z"/>
		<path class="st0" d="M1086.7,328.3c1.3,1.4,2.5,2.7,3.6,4.1c0.2,0.3,0.2,1.1-0.1,1.4c-1.1,1.4-2.3,2.6-3.6,4.1
			c-1.4-1.5-2.8-3-4.3-4.6C1083.7,331.6,1085.2,330,1086.7,328.3z"/>
		<path class="st0" d="M1075,299c1.5-1.3,2.8-2.6,4-3.6c1.7,1.3,3.4,2.6,5.3,4.1c-1.7,1.7-3,3-4.4,4.5
			C1078.2,302.3,1076.7,300.8,1075,299z"/>
		<path class="st0" d="M1003.3,310.9c-1.3-1.5-2.6-2.9-3.9-4.3c1.5-1.6,2.9-3.2,4.5-4.9c1.4,1.5,2.7,2.8,4.1,4.3
			C1006.4,307.6,1005,309.2,1003.3,310.9z"/>
		<path class="st0" d="M1090.3,306.6c-1.3,1.5-2.6,2.8-3.9,4.3c-1.6-1.7-3-3.2-4.6-4.9c1.4-1.4,2.6-2.8,4.1-4.3
			C1087.4,303.4,1088.8,304.9,1090.3,306.6z"/>
		<path class="st0" d="M1019.6,286.5c1.8-1.5,3.4-2.9,5-4.3c1.5,1.3,2.9,2.5,4.5,3.8c-1.8,1.6-3.4,3-5.1,4.4
			C1022.5,289.1,1021.1,287.9,1019.6,286.5z"/>
		<path class="st0" d="M1008,346.6c-1.4,1.5-2.7,2.8-4,4.3c-1.5-1.6-2.9-3.2-4.5-4.8c1.2-1.4,2.5-2.8,3.9-4.4
			C1004.9,343.4,1006.4,344.9,1008,346.6z"/>
		<path class="st0" d="M1085.9,350.9c-1.5-1.6-2.7-2.9-4.1-4.3c1.5-1.6,3-3.2,4.6-4.9c1.3,1.5,2.5,2.8,3.9,4.3
			C1088.9,347.6,1087.4,349.2,1085.9,350.9z"/>
		<path class="st0" d="M1070.2,286.6c-1.6,1.4-2.9,2.6-4.4,3.9c-1.7-1.5-3.3-2.9-5.1-4.4c1.5-1.3,2.9-2.5,4.5-3.8
			C1066.8,283.6,1068.4,285,1070.2,286.6z"/>
		<path class="st0" d="M1049.7,280.1c-1.6,1.3-3.1,2.5-4.8,3.9c-1.6-1.2-3.1-2.5-4.9-3.9c1.4-1.1,2.7-2.2,4.1-3.1
			c0.4-0.2,1.2-0.2,1.6,0C1047.1,277.9,1048.3,278.9,1049.7,280.1z"/>
		<path class="st0" d="M1092.5,321.7c0.3,0.4,0.5,0.5,0.7,0.7c3.7,4.3,3.7,4.3-0.7,8.4c-0.2-0.1-0.4-0.2-0.5-0.4
			c-1.1-1.3-2.3-2.7-3.5-4.1C1089.8,324.8,1091.1,323.3,1092.5,321.7z"/>
		<path class="st0" d="M1031.6,276.6c1.5,1.1,3,2.2,4.7,3.4c-1.8,1.5-3.4,2.8-5.2,4.2c-1.5-1.3-2.9-2.4-4.4-3.7
			C1028.3,279.2,1029.9,277.9,1031.6,276.6z"/>
		<path class="st0" d="M1053.6,280.2c1.5-1.2,2.9-2.4,4.4-3.7c1.7,1.3,3.3,2.6,5.1,4c-1.6,1.3-2.9,2.5-4.4,3.7
			C1057,282.9,1055.4,281.6,1053.6,280.2z"/>
		<path class="st0" d="M997.2,321.6c1.4,1.6,2.7,3.1,4.1,4.7c-1.3,1.5-2.6,3-4,4.7c-1.1-1.4-2.3-2.6-3.2-4c-0.3-0.4-0.1-1.3,0.2-1.7
			C995.1,324.1,996.1,323,997.2,321.6z"/>
		<path class="st0" d="M1092.1,308.6c1.4,1.7,2.6,3.2,4,4.8c-1.1,1.4-2.3,2.8-3.6,4.4c-1.3-1.5-2.6-2.9-3.8-4.4
			c-0.2-0.2,0-1,0.3-1.3C1089.9,310.9,1091,309.8,1092.1,308.6z"/>
		<path class="st0" d="M997.7,308.6c1.3,1.5,2.5,2.8,3.8,4.3c-1.4,1.6-2.7,3.2-4.2,4.9c-1.2-1.5-2.4-2.9-3.6-4.4
			C995,311.8,996.3,310.3,997.7,308.6z"/>
		<path class="st0" d="M1001.5,339.7c-1.3,1.5-2.5,2.9-3.8,4.4c-1.4-1.7-2.7-3.2-4-4.9c1.2-1.5,2.4-2.9,3.6-4.4
			C998.7,336.5,1000.1,338,1001.5,339.7z"/>
		<path class="st0" d="M1092.1,344.1c-1.4-1.6-2.5-2.9-3.8-4.3c1.4-1.6,2.7-3.2,4.2-4.9c1.2,1.5,2.4,2.8,3.6,4.4
			C1094.8,340.8,1093.5,342.4,1092.1,344.1z"/>
		<path class="st0" d="M1010.9,291.5c-1.2-1.4-2.3-2.6-3.5-4.1c1.3-1.2,2.9-2.6,4.5-4.1c1.3,1.2,2.5,2.3,3.8,3.4
			C1014.1,288.3,1012.6,289.8,1010.9,291.5z"/>
		<path class="st0" d="M1078.8,291.4c-1.6-1.6-3-3.1-4.6-4.7c1.1-1,2.4-2.2,3.7-3.4c1.7,1.5,3.2,2.9,4.9,4.4
			C1081.4,289,1080.2,290.1,1078.8,291.4z"/>
		<path class="st0" d="M1004.2,298.1c-1.2-1.3-2.3-2.4-3.6-3.8c1.5-1.6,2.9-3.1,4.5-4.7c1.2,1.3,2.4,2.5,3.6,3.9
			C1007.4,294.9,1005.9,296.4,1004.2,298.1z"/>
		<path class="st0" d="M1089.2,294.3c-1.2,1.3-2.3,2.5-3.5,3.8c-1.7-1.6-3.2-3-4.9-4.6c1.5-1.2,2.7-2.4,4.1-3.5
			C1086.1,291.2,1087.6,292.7,1089.2,294.3z"/>
		<path class="st0" d="M1091.8,347.7c1.2,1.4,2.2,2.6,3.3,3.9c-1.4,1.6-2.7,3.1-4.1,4.7c-1.2-1.3-2.3-2.5-3.6-3.8
			C1088.9,351,1090.2,349.4,1091.8,347.7z"/>
		<path class="st0" d="M1017.8,285c-1.4-1.2-2.6-2.2-3.9-3.4c1.7-1.4,3.2-2.7,4.9-4.1c1.4,1.1,2.7,2.2,4.1,3.3
			C1021.2,282.2,1019.6,283.5,1017.8,285z"/>
		<path class="st0" d="M994.6,351.7c1.2-1.4,2.2-2.6,3.4-4c1.5,1.7,2.8,3.2,4.3,4.9c-1.1,1.2-2.2,2.5-3.5,3.9
			C997.3,354.8,996,353.3,994.6,351.7z"/>
		<path class="st0" d="M1066.9,280.8c1.4-1.1,2.7-2.2,4.1-3.3c1.6,1.4,3.2,2.6,4.9,4.1c-1.3,1.2-2.5,2.2-3.9,3.4
			C1070.3,283.6,1068.7,282.3,1066.9,280.8z"/>
		<path class="st0" d="M1051.6,278.6c-1.6-1.2-3.1-2.4-4.8-3.6c1.4-1,2.6-1.9,3.8-2.7c0.3-0.2,1-0.3,1.3-0.1c1.4,0.9,2.8,2,4.2,3
			C1054.6,276.3,1053.1,277.4,1051.6,278.6z"/>
		<path class="st0" d="M1038.1,278.5c-1.5-1.1-2.9-2.2-4.5-3.4c1.5-1.1,2.9-2.1,4.3-3.1c0.2-0.2,0.8-0.1,1.1,0
			c1.3,0.9,2.5,1.8,3.9,2.8C1041.3,276.2,1039.7,277.4,1038.1,278.5z"/>
		<path class="st0" d="M1017.1,355.8c1.4,1.4,2.9,2.9,4.4,4.4c-1.7,1.8-6.9,1.5-8.9-0.7C1014.1,358.3,1015.5,357.1,1017.1,355.8z"/>
		<path class="st0" d="M1076.8,359.9c-1.6,1.8-6.7,2.1-9.1,0.1c0.9-0.7,1.9-1.3,2.7-2.1c0.8-0.7,1.4-1.6,2.3-2.6
			C1074.3,357,1075.5,358.4,1076.8,359.9z"/>
		<path class="st0" d="M1008.8,359.3c-2.9,3.3-5.1,3-8.1-1c1.1-1.2,2.3-2.4,3.5-3.7C1005.8,356.2,1007.3,357.7,1008.8,359.3z"/>
		<path class="st0" d="M1080.9,359.3c1.5-1.6,3-3.1,4.6-4.7c1.2,1.3,2.4,2.5,3.5,3.6C1086.1,362.2,1084.1,362.5,1080.9,359.3z"/>
		<path class="st0" d="M998.1,304.8c-2.9-2.5-2.6-5.6,0.9-8.3c1.1,1.2,2.2,2.4,3.3,3.6c-0.8,0.9-1.4,1.6-2.1,2.4
			C999.6,303.2,998.9,303.9,998.1,304.8z"/>
		<path class="st0" d="M1091.6,304.8c-1.4-1.5-2.7-3.1-4.2-4.7c1.2-1.3,2.3-2.5,3.4-3.6C1094.3,299.3,1094.6,302.3,1091.6,304.8z"/>
		<path class="st0" d="M1024.9,279.1c-1.3-1.1-2.6-2.1-3.8-3.1c4.8-4.5,5.5-3.6,8.7-0.7c-0.8,0.6-1.6,1.2-2.4,1.8
			C1026.5,277.8,1025.7,278.4,1024.9,279.1z"/>
		<path class="st0" d="M1060.1,275.4c3.4-3.3,4.8-3.2,8.7,0.6c-1.3,1-2.5,2-3.8,3.1C1063.3,277.9,1061.8,276.7,1060.1,275.4z"/>
		<path class="st0" d="M1030.6,356.1c1.8,1.6,3.4,3.1,5,4.6c-0.1,0.2-0.1,0.3-0.2,0.5c-3.1,0-6.3,0.4-9.4-0.2c0-0.2-0.1-0.4-0.1-0.6
			C1027.4,359,1028.9,357.6,1030.6,356.1z"/>
		<path class="st0" d="M1054.1,360.7c1.6-1.5,3.3-3,5.1-4.6c1.6,1.4,3.1,2.8,5.1,4.7c-3.7,0.8-6.9,0.4-10,0.4
			C1054.3,361,1054.2,360.9,1054.1,360.7z"/>
		<path class="st0" d="M1039.6,361.1c2-1.8,3.6-3.2,5.3-4.7c1.7,1.5,3.3,2.9,5.3,4.7C1046.5,361.1,1043.3,361.1,1039.6,361.1z"/>
		<path class="st0" d="M997.4,357.9c-1,1.2-2,2.2-2.9,3.2c-1.8-1.6-2.2-4.7-1.2-7.9C994.7,354.9,996.1,356.4,997.4,357.9z"/>
		<path class="st0" d="M1096.6,353.6c-0.2,2.5,1.4,5.3-1.2,7.5C1091.7,357.5,1091.5,358.6,1096.6,353.6z"/>
		<path class="st0" d="M1049.4,270.1c-4.2,3.8-4.9,3.8-9.1,0C1043.5,270.1,1046.2,270.1,1049.4,270.1z"/>
		<path class="st0" d="M1096.7,349.6c-1.2-1.4-2.2-2.6-3.3-3.8c1.1-1.3,2.1-2.4,3.3-3.9C1096.7,344.5,1096.7,346.8,1096.7,349.6z"/>
		<path class="st0" d="M993,349.6c0-2.8,0-5.1,0-7.8c1.2,1.4,2.2,2.6,3.3,3.8C995.3,346.9,994.3,348.1,993,349.6z"/>
		<path class="st0" d="M1057.9,273.8c-1.4-1-2.8-2-4.2-2.9c0-0.2,0.1-0.3,0.1-0.5c2.2,0.4,4.3,0.8,7.1,1.3
			C1059.6,272.7,1058.8,273.2,1057.9,273.8z"/>
		<path class="st0" d="M1031.9,273.8c-0.9-0.6-1.7-1.2-2.9-2.1c2.6-0.5,4.8-1,7-1.4c0.1,0.1,0.1,0.3,0.2,0.4
			C1034.7,271.8,1033.4,272.8,1031.9,273.8z"/>
		<path class="st0" d="M993,316.7c3.2,3.6,3.3,2.3,0,6.1C993,320.8,993,318.9,993,316.7z"/>
		<path class="st0" d="M1096.8,329.9c0,2,0,3.9,0,5.8C1093.6,333.4,1093.6,332.9,1096.8,329.9z"/>
		<path class="st0" d="M993,329.7c2.7,3.2,2.7,3.2,0,6.3C993,333.8,993,331.9,993,329.7z"/>
		<path class="st0" d="M1096.8,316.7c0,2.2,0,4.1,0,5.9C1093.7,320.4,1093.6,319.9,1096.8,316.7z"/>
		<path class="st0" d="M1095.7,309.5c-0.7-0.8-1.4-1.5-2.2-2.4c0.4-0.6,0.8-1.1,1.4-2c0.4,1.7,0.7,3,1,4.3
			C1095.9,309.3,1095.8,309.4,1095.7,309.5z"/>
		<path class="st0" d="M994.7,305.1c0.7,0.8,1.1,1.2,1.5,1.8c-0.8,0.9-1.5,1.7-2.2,2.6c-0.1,0-0.2-0.1-0.3-0.1
			C994.1,308,994.4,306.8,994.7,305.1z"/>
		<path class="st0" d="M1005.4,285.9c1.4-1.4,2.9-2.8,4.3-4.2c0,0,0.1,0.1,0.1,0.1c-1.4,1.4-2.8,2.9-4.2,4.3
			C1005.5,286,1005.4,285.9,1005.4,285.9z"/>
	</g>
</g>
<g id="m-noton">
	<path class="st3" d="M876.9,563.4l-1.1-1.6c-3.8-5.4-2.5-12.9,2.9-16.7l307.7-262.9c5.4-3.8,12.9-2.5,16.7,2.9l1.1,1.6
		c3.8,5.4,2.5,12.9-2.9,16.7L893.6,566.4C888.2,570.2,880.7,568.8,876.9,563.4z"/>
	<path class="st3" d="M1216.6,561.8l-1.1,1.6c-3.8,5.4-11.3,6.7-16.7,2.9L891.1,303.4c-5.4-3.8-6.7-11.3-2.9-16.7l1.1-1.6
		c3.8-5.4,11.3-6.7,16.7-2.9l307.7,262.9C1219.1,548.9,1220.4,556.4,1216.6,561.8z"/>
</g>
<g id="m-on">
	<path d="M1139.2,248.9c6.8,10.5,8.2,21.7,2.5,33.4c-2.8,5.9-7.3,8-11.9,6.1c-4.7-2-6.1-6.3-3.4-12.7c2.7-6.3,3.2-12.1-1.2-17.8
		c-3.3-4.3-7.4-6.6-12.8-6.5c-2,0-4,0.2-6,0c-4.9-0.5-7.8-3.2-7.9-7.4c-0.1-4.6,2.3-7.7,6.7-8.7c11.7-2.5,21.6,1.1,30.1,9.2
		C1136.8,245.8,1137.9,247.3,1139.2,248.9z"/>
	<path d="M1174.6,219.7c13.2,21.7,15,45.2,2,69.2c-1.3,2.3-3.6,4.9-6,5.5c-2.5,0.6-6.3-0.2-8-2c-1.7-1.7-2.1-5.4-1.9-8.1
		c0.2-2.3,2-4.5,3-6.8c8-17.5,6.9-34.4-4.2-50.2c-11-15.7-26.6-22.5-45.8-20.9c-1.8,0.2-3.6,0.5-5.4,0.6c-5.4,0.3-8.8-2.1-9.5-6.7
		c-0.8-4.8,1.8-8.5,7.2-9.6c11.7-2.6,23.1-1.5,34.4,2.4C1154.2,198.1,1165.2,206.6,1174.6,219.7z"/>
	<path d="M1221.6,192.8c3.5,9.6,8.1,19,10.3,28.9c5.5,25,1.7,48.9-11.5,71.1c-1.3,2.1-3.5,4.9-5.5,5.1c-2.9,0.3-7.1-0.5-8.8-2.5
		c-1.6-2-1.6-6.4-0.7-9.1c1.8-5.3,5.2-10,7.1-15.3c10-28.5,6.4-55.4-12-79.3c-20-25.9-47.2-36.1-79.8-31.6c-1.2,0.2-2.3,0.5-3.4,0.6
		c-5.3,0.4-8.9-2.1-9.6-6.6c-0.8-4.7,2-8.7,7.1-9.7c19.1-3.9,37.7-2.2,55.9,4.9c14.6,5.7,27.4,14.2,37.8,26.1
		c0.6,0.7,1.5,1.3,2.3,1.9C1214.3,182.4,1217.9,187.6,1221.6,192.8z"/>
</g>
</svg>

